General
     Complete name : The Untouchables 1987 BRRip 720p H.264.mp4
     Format : MPEG-4
     Format profile : Base Media
     Codec ID : isom
     File size : 696 MiB
     Duration : 1h 59mn
     Overall bit rate : 814 Kbps
     Encoded date : UTC 2011-02-19 17:48:16
     Tagged date : UTC 2011-02-19 17:48:16
  Video #1
     ID : 1
     Format : AVC
     Format/Info : Advanced Video Codec
     Format profile : High@L4.2
     Format settings, CABAC : Yes
     Format settings, ReFrames : 8 frames
     Codec ID : avc1
     Codec ID/Info : Advanced Video Coding
     Duration : 1h 59mn
     Bit rate mode : Variable
     Bit rate : 749 Kbps
     Maximum bit rate : 3 076 Kbps
     Width : 1 280 pixels
     Height : 544 pixels
     Display aspect ratio : 2.35:1
     Frame rate mode : Constant
     Frame rate : 23.976 fps
     Resolution : 24 bits
     Colorimetry : 4:2:0
     Scan type : Progressive
     Bits/(Pixel*Frame) : 0.045
     Stream size : 639 MiB (92%)
     Writing library : x264 core 112 r1867 22bfd31
     Encoding settings : cabac=1 / ref=8 / deblock=1:1:0 / analyse=0x3:0x133 / me=umh / subme=9 / psy=1 / psy_rd=0.00:0.10 / mixed_ref=1 / me_range=64 / chroma_me=1 / trellis=1 / 8x8dct=1 / cqm=0 / deadzone=21,11 / fast_pskip=0 / chroma_qp_offset=-4 / threads=3 / sliced_threads=0 / nr=0 / decimate=1 / interlaced=0 / constrained_intra=0 / bframes=3 / b_pyramid=2 / b_adapt=1 / b_bias=0 / direct=1 / weightb=1 / open_gop=0 / weightp=2 / keyint=250 / keyint_min=23 / scenecut=40 / intra_refresh=0 / rc_lookahead=40 / rc=2pass / mbtree=0 / bitrate=749 / ratetol=2.0 / qcomp=0.60 / qpmin=0 / qpmax=51 / qpstep=4 / cplxblur=20.0 / qblur=0.5 / vbv_maxrate=31250 / vbv_bufsize=31250 / nal_hrd=none / ip_ratio=1.40 / pb_ratio=1.30 / aq=1:1.00 / zones=168590,171840,q=40
     Encoded date : UTC 2011-02-19 07:55:14
     Tagged date : UTC 2011-02-19 17:49:02
  Audio #2
     ID : 2
     Format : AAC
     Format/Info : Advanced Audio Codec
     Format version : Version 4
     Format profile : LC
     Format settings, SBR : Yes
     Format settings, PS : No
     Codec ID : 40
     Duration : 1h 59mn
     Bit rate mode : Variable
     Bit rate : 63.8 Kbps
     Maximum bit rate : 104 Kbps
     Channel(s) : 2 channels
     Channel positions : L R
     Sampling rate : 48.0 KHz
     Resolution : 16 bits
     Stream size : 54.5 MiB (8%)
     Encoded date : UTC 2011-02-19 17:48:53
     Tagged date : UTC 2011-02-19 17:49:02

Screenshots:
 
http://www.leetleech.org/images/35464674491457638048.png
 
http://www.leetleech.org/images/58156222680904861738.png
 
http://www.leetleech.org/images/66472651446868517347.png
 
http://www.leetleech.org/images/36341936486317051225.png